<svg xmlns="http://www.w3.org/2000/svg" xmlns:xlink="http://www.w3.org/1999/xlink" viewBox="0 0 72 74">
  <defs>
    <path id="overmind-sign-only-a" d="M29.2,2.18461538 C29.2,2.18461538 8.13636894,12.7515454 6.73846154,13.4153846 C2.24615385,15.6615385 0,17.9076923 0,23.5230769 L0,50.4769231 C0,56.0923077 2.24615385,58.3497033 6.73846154,60.5958571 C12.7356403,63.5917178 29.2,71.8153846 29.2,71.8153846 C33.6923077,74.0615385 38.1846154,74.0615385 42.6769231,71.8153846 C47.173892,69.5704646 62.8923077,61.7076923 65.1384615,60.5846154 C69.6307692,58.3384615 71.8769231,56.0923077 71.8769231,50.4769231 C71.8769231,56.0923077 71.8769231,23.5230769 71.8769231,23.5230769 C71.8769231,17.8536771 69.6351563,15.6500225 65.1384615,13.4153846 C65.1384615,13.4153846 47.1692308,4.43076923 42.6769231,2.18461538 C38.1846154,-0.0615384615 33.6923077,-0.0615384615 29.2,2.18461538 Z"/>
  </defs>
  <g fill="none" fill-rule="evenodd">
    <mask id="overmind-sign-only-b" fill="#fff">
      <use xlink:href="#overmind-sign-only-a"/>
    </mask>
    <use fill="#FFF" opacity="0" xlink:href="#overmind-sign-only-a"/>
    <path fill="#9013FE" d="M30,6 C30,6 11.2447121,15.4089103 10,16 C6,18 4,20 4,25 L4,49 C4,54 6,56.0100098 10,58.0100098 C15.3399537,60.677557 30,68 30,68 C34,70 38,70 42,68 C46.0041504,66.0010986 60,59 62,58 C66,56 68,54 68,49 C68,54 68,25 68,25 C68,19.9519043 66.0039062,17.9897461 62,16 C62,16 46,8 42,6 C38,4 34,4 30,6 Z" mask="url(#overmind-sign-only-b)"/>
    <path fill="#CF1BF4" fill-rule="nonzero" d="M36 .996337891C36 3.02790218 35.6368082 3.93621424 34.3355871 5.88923718 32.6368082 8.43896082 32 10.0315643 32 13 32 15.9686111 32.6369402 17.5609615 34.3358994 20.1094004 35.6369402 22.0609615 36 22.9686111 36 25 36 27.0313889 35.6369402 27.9390385 34.3358994 29.8905996 32.6369402 32.4390385 32 34.0313889 32 37 32 39.9686111 32.6369402 41.5609615 34.3358994 44.1094004 35.6369402 46.0609615 36 46.9686111 36 49 36 51.031576 35.6367994 51.9399322 34.3355663 53.8930526 32.6367994 56.4428619 32 58.0354822 32 61.0039062 32 63.9727046 32.6370811 65.5647853 34.336233 68.1118537 35.6370811 70.0618556 36 70.9687983 36 73L40 73C40 70.0312017 39.3629189 68.439121 37.663767 65.8920525 36.3629189 63.9420507 36 63.0351079 36 61.0039062 36 58.9723303 36.3632006 58.063974 37.6644337 56.1108537 39.3632006 53.5610444 40 51.968424 40 49 40 46.0313889 39.3630598 44.4390385 37.6641006 41.8905996 36.3630598 39.9390385 36 39.0313889 36 37 36 34.9686111 36.3630598 34.0609615 37.6641006 32.1094004 39.3630598 29.5609615 40 27.9686111 40 25 40 22.0313889 39.3630598 20.4390385 37.6641006 17.8905996 36.3630598 15.9390385 36 15.0313889 36 13 36 10.9684357 36.3631918 10.0601236 37.6644129 8.10710071 39.3631918 5.55737707 40 3.96477361 40 .996337891L36 .996337891zM44 .996337891C44 3.02790218 43.6368082 3.93621424 42.3355871 5.88923718 40.6368082 8.43896082 40 10.0315643 40 13 40 15.9686111 40.6369402 17.5609615 42.3358994 20.1094004 43.6369402 22.0609615 44 22.9686111 44 25 44 27.0313889 43.6369402 27.9390385 42.3358994 29.8905996 40.6369402 32.4390385 40 34.0313889 40 37 40 39.9686111 40.6369402 41.5609615 42.3358994 44.1094004 43.6369402 46.0609615 44 46.9686111 44 49 44 51.031576 43.6367994 51.9399322 42.3355663 53.8930526 40.6367994 56.4428619 40 58.0354822 40 61.0039062 40 63.9727046 40.6370811 65.5647853 42.336233 68.1118537 43.6370811 70.0618556 44 70.9687983 44 73L48 73C48 70.0312017 47.3629189 68.439121 45.663767 65.8920525 44.3629189 63.9420507 44 63.0351079 44 61.0039062 44 58.9723303 44.3632006 58.063974 45.6644337 56.1108537 47.3632006 53.5610444 48 51.968424 48 49 48 46.0313889 47.3630598 44.4390385 45.6641006 41.8905996 44.3630598 39.9390385 44 39.0313889 44 37 44 34.9686111 44.3630598 34.0609615 45.6641006 32.1094004 47.3630598 29.5609615 48 27.9686111 48 25 48 22.0313889 47.3630598 20.4390385 45.6641006 17.8905996 44.3630598 15.9390385 44 15.0313889 44 13 44 10.9684357 44.3631918 10.0601236 45.6644129 8.10710071 47.3631918 5.55737707 48 3.96477361 48 .996337891L44 .996337891zM52 .996337891C52 3.02790218 51.6368082 3.93621424 50.3355871 5.88923718 48.6368082 8.43896082 48 10.0315643 48 13 48 15.9686111 48.6369402 17.5609615 50.3358994 20.1094004 51.6369402 22.0609615 52 22.9686111 52 25 52 27.0313889 51.6369402 27.9390385 50.3358994 29.8905996 48.6369402 32.4390385 48 34.0313889 48 37 48 39.9686111 48.6369402 41.5609615 50.3358994 44.1094004 51.6369402 46.0609615 52 46.9686111 52 49 52 51.031576 51.6367994 51.9399322 50.3355663 53.8930526 48.6367994 56.4428619 48 58.0354822 48 61.0039062 48 63.9727046 48.6370811 65.5647853 50.336233 68.1118537 51.6370811 70.0618556 52 70.9687983 52 73L56 73C56 70.0312017 55.3629189 68.439121 53.663767 65.8920525 52.3629189 63.9420507 52 63.0351079 52 61.0039062 52 58.9723303 52.3632006 58.063974 53.6644337 56.1108537 55.3632006 53.5610444 56 51.968424 56 49 56 46.0313889 55.3630598 44.4390385 53.6641006 41.8905996 52.3630598 39.9390385 52 39.0313889 52 37 52 34.9686111 52.3630598 34.0609615 53.6641006 32.1094004 55.3630598 29.5609615 56 27.9686111 56 25 56 22.0313889 55.3630598 20.4390385 53.6641006 17.8905996 52.3630598 15.9390385 52 15.0313889 52 13 52 10.9684357 52.3631918 10.0601236 53.6644129 8.10710071 55.3631918 5.55737707 56 3.96477361 56 .996337891L52 .996337891zM60 .996337891C60 3.02790218 59.6368082 3.93621424 58.3355871 5.88923718 56.6368082 8.43896082 56 10.0315643 56 13 56 15.9686111 56.6369402 17.5609615 58.3358994 20.1094004 59.6369402 22.0609615 60 22.9686111 60 25 60 27.0313889 59.6369402 27.9390385 58.3358994 29.8905996 56.6369402 32.4390385 56 34.0313889 56 37 56 39.9686111 56.6369402 41.5609615 58.3358994 44.1094004 59.6369402 46.0609615 60 46.9686111 60 49 60 51.031576 59.6367994 51.9399322 58.3355663 53.8930526 56.6367994 56.4428619 56 58.0354822 56 61.0039062 56 63.9727046 56.6370811 65.5647853 58.336233 68.1118537 59.6370811 70.0618556 60 70.9687983 60 73L64 73C64 70.0312017 63.3629189 68.439121 61.663767 65.8920525 60.3629189 63.9420507 60 63.0351079 60 61.0039062 60 58.9723303 60.3632006 58.063974 61.6644337 56.1108537 63.3632006 53.5610444 64 51.968424 64 49 64 46.0313889 63.3630598 44.4390385 61.6641006 41.8905996 60.3630598 39.9390385 60 39.0313889 60 37 60 34.9686111 60.3630598 34.0609615 61.6641006 32.1094004 63.3630598 29.5609615 64 27.9686111 64 25 64 22.0313889 63.3630598 20.4390385 61.6641006 17.8905996 60.3630598 15.9390385 60 15.0313889 60 13 60 10.9684357 60.3631918 10.0601236 61.6644129 8.10710071 63.3631918 5.55737707 64 3.96477361 64 .996337891L60 .996337891zM68 .996337891C68 3.02790218 67.6368082 3.93621424 66.3355871 5.88923718 64.6368082 8.43896082 64 10.0315643 64 13 64 15.9686111 64.6369402 17.5609615 66.3358994 20.1094004 67.6369402 22.0609615 68 22.9686111 68 25 68 27.0313889 67.6369402 27.9390385 66.3358994 29.8905996 64.6369402 32.4390385 64 34.0313889 64 37 64 39.9686111 64.6369402 41.5609615 66.3358994 44.1094004 67.6369402 46.0609615 68 46.9686111 68 49 68 51.031576 67.6367994 51.9399322 66.3355663 53.8930526 64.6367994 56.4428619 64 58.0354822 64 61.0039062 64 63.9727046 64.6370811 65.5647853 66.336233 68.1118537 67.6370811 70.0618556 68 70.9687983 68 73L72 73C72 70.0312017 71.3629189 68.439121 69.663767 65.8920525 68.3629189 63.9420507 68 63.0351079 68 61.0039062 68 58.9723303 68.3632006 58.063974 69.6644337 56.1108537 71.3632006 53.5610444 72 51.968424 72 49 72 46.0313889 71.3630598 44.4390385 69.6641006 41.8905996 68.3630598 39.9390385 68 39.0313889 68 37 68 34.9686111 68.3630598 34.0609615 69.6641006 32.1094004 71.3630598 29.5609615 72 27.9686111 72 25 72 22.0313889 71.3630598 20.4390385 69.6641006 17.8905996 68.3630598 15.9390385 68 15.0313889 68 13 68 10.9684357 68.3631918 10.0601236 69.6644129 8.10710071 71.3631918 5.55737707 72 3.96477361 72 .996337891L68 .996337891zM28 .996337891C28 3.02790218 27.6368082 3.93621424 26.3355871 5.88923718 24.6368082 8.43896082 24 10.0315643 24 13 24 15.9686111 24.6369402 17.5609615 26.3358994 20.1094004 27.6369402 22.0609615 28 22.9686111 28 25 28 27.0313889 27.6369402 27.9390385 26.3358994 29.8905996 24.6369402 32.4390385 24 34.0313889 24 37 24 39.9686111 24.6369402 41.5609615 26.3358994 44.1094004 27.6369402 46.0609615 28 46.9686111 28 49 28 51.031576 27.6367994 51.9399322 26.3355663 53.8930526 24.6367994 56.4428619 24 58.0354822 24 61.0039062 24 63.9727046 24.6370811 65.5647853 26.336233 68.1118537 27.6370811 70.0618556 28 70.9687983 28 73L32 73C32 70.0312017 31.3629189 68.439121 29.663767 65.8920525 28.3629189 63.9420507 28 63.0351079 28 61.0039062 28 58.9723303 28.3632006 58.063974 29.6644337 56.1108537 31.3632006 53.5610444 32 51.968424 32 49 32 46.0313889 31.3630598 44.4390385 29.6641006 41.8905996 28.3630598 39.9390385 28 39.0313889 28 37 28 34.9686111 28.3630598 34.0609615 29.6641006 32.1094004 31.3630598 29.5609615 32 27.9686111 32 25 32 22.0313889 31.3630598 20.4390385 29.6641006 17.8905996 28.3630598 15.9390385 28 15.0313889 28 13 28 10.9684357 28.3631918 10.0601236 29.6644129 8.10710071 31.3631918 5.55737707 32 3.96477361 32 .996337891L28 .996337891zM20 .996337891C20 3.02790218 19.6368082 3.93621424 18.3355871 5.88923718 16.6368082 8.43896082 16 10.0315643 16 13 16 15.9686111 16.6369402 17.5609615 18.3358994 20.1094004 19.6369402 22.0609615 20 22.9686111 20 25 20 27.0313889 19.6369402 27.9390385 18.3358994 29.8905996 16.6369402 32.4390385 16 34.0313889 16 37 16 39.9686111 16.6369402 41.5609615 18.3358994 44.1094004 19.6369402 46.0609615 20 46.9686111 20 49 20 51.031576 19.6367994 51.9399322 18.3355663 53.8930526 16.6367994 56.4428619 16 58.0354822 16 61.0039062 16 63.9727046 16.6370811 65.5647853 18.336233 68.1118537 19.6370811 70.0618556 20 70.9687983 20 73L24 73C24 70.0312017 23.3629189 68.439121 21.663767 65.8920525 20.3629189 63.9420507 20 63.0351079 20 61.0039062 20 58.9723303 20.3632006 58.063974 21.6644337 56.1108537 23.3632006 53.5610444 24 51.968424 24 49 24 46.0313889 23.3630598 44.4390385 21.6641006 41.8905996 20.3630598 39.9390385 20 39.0313889 20 37 20 34.9686111 20.3630598 34.0609615 21.6641006 32.1094004 23.3630598 29.5609615 24 27.9686111 24 25 24 22.0313889 23.3630598 20.4390385 21.6641006 17.8905996 20.3630598 15.9390385 20 15.0313889 20 13 20 10.9684357 20.3631918 10.0601236 21.6644129 8.10710071 23.3631918 5.55737707 24 3.96477361 24 .996337891L20 .996337891zM12 .996337891C12 3.02790218 11.6368082 3.93621424 10.3355871 5.88923718 8.63680818 8.43896082 8 10.0315643 8 13 8 15.9686111 8.63694018 17.5609615 10.3358994 20.1094004 11.6369402 22.0609615 12 22.9686111 12 25 12 27.0313889 11.6369402 27.9390385 10.3358994 29.8905996 8.63694018 32.4390385 8 34.0313889 8 37 8 39.9686111 8.63694018 41.5609615 10.3358994 44.1094004 11.6369402 46.0609615 12 46.9686111 12 49 12 51.031576 11.6367994 51.9399322 10.3355663 53.8930526 8.63679938 56.4428619 8 58.0354822 8 61.0039062 8 63.9727046 8.63708114 65.5647853 10.336233 68.1118537 11.6370811 70.0618556 12 70.9687983 12 73L16 73C16 70.0312017 15.3629189 68.439121 13.663767 65.8920525 12.3629189 63.9420507 12 63.0351079 12 61.0039062 12 58.9723303 12.3632006 58.063974 13.6644337 56.1108537 15.3632006 53.5610444 16 51.968424 16 49 16 46.0313889 15.3630598 44.4390385 13.6641006 41.8905996 12.3630598 39.9390385 12 39.0313889 12 37 12 34.9686111 12.3630598 34.0609615 13.6641006 32.1094004 15.3630598 29.5609615 16 27.9686111 16 25 16 22.0313889 15.3630598 20.4390385 13.6641006 17.8905996 12.3630598 15.9390385 12 15.0313889 12 13 12 10.9684357 12.3631918 10.0601236 13.6644129 8.10710071 15.3631918 5.55737707 16 3.96477361 16 .996337891L12 .996337891zM4 .996337891C4 3.02790218 3.63680818 3.93621424 2.33558709 5.88923718.636808178 8.43896082 0 10.0315643 0 13 0 15.9686111.636940177 17.5609615 2.33589941 20.1094004 3.63694018 22.0609615 4 22.9686111 4 25 4 27.0313889 3.63694018 27.9390385 2.33589941 29.8905996.636940177 32.4390385 0 34.0313889 0 37 0 39.9686111.636940177 41.5609615 2.33589941 44.1094004 3.63694018 46.0609615 4 46.9686111 4 49 4 51.031576 3.63679938 51.9399322 2.33556628 53.8930526.636799383 56.4428619 0 58.0354822 0 61.0039062 0 63.9727046.637081144 65.5647853 2.33623299 68.1118537 3.63708114 70.0618556 4 70.9687983 4 73L8 73C8 70.0312017 7.36291886 68.439121 5.66376701 65.8920525 4.36291886 63.9420507 4 63.0351079 4 61.0039062 4 58.9723303 4.36320062 58.063974 5.66443372 56.1108537 7.36320062 53.5610444 8 51.968424 8 49 8 46.0313889 7.36305982 44.4390385 5.66410059 41.8905996 4.36305982 39.9390385 4 39.0313889 4 37 4 34.9686111 4.36305982 34.0609615 5.66410059 32.1094004 7.36305982 29.5609615 8 27.9686111 8 25 8 22.0313889 7.36305982 20.4390385 5.66410059 17.8905996 4.36305982 15.9390385 4 15.0313889 4 13 4 10.9684357 4.36319182 10.0601236 5.66441291 8.10710071 7.36319182 5.55737707 8 3.96477361 8 .996337891L4 .996337891z" mask="url(#overmind-sign-only-b)"/>
    <path fill="#FFF" d="M36,47 C26,47 22,37 22,37 C22,37 26,27 36,27 C46,27 50,37 50,37 C50,37 46,47 36,47 Z M36,44 C39.8659932,44 43,40.8659932 43,37 C43,33.1340068 39.8659932,30 36,30 C32.1340068,30 29,33.1340068 29,37 C29,40.8659932 32.1340068,44 36,44 Z M36,41 C33.790861,41 32,39.209139 32,37 C32,34.790861 33.790861,33 36,33 C38.209139,33 40,34.790861 40,37 C40,39.209139 38.209139,41 36,41 Z" mask="url(#overmind-sign-only-b)"/>
  </g>
</svg>
